<svg version="1.1" viewBox="0.000000 0.000000 96.000000 96.000000" xmlns="http://www.w3.org/2000/svg" xmlns:xlink="http://www.w3.org/1999/xlink" id="Icons_Apple" overflow="hidden"><style>
.MsftOfcThm_Accent3_Fill {
 fill:#297D53; 
}
</style>
<path d=" M 77.000000 34.799999 C 68.000000 25.000000 58.299999 31.700001 50.900002 33.400002 C 50.700001 31.000000 50.099998 28.799999 49.400002 26.700001 C 52.500000 26.400000 57.099998 25.400000 60.299999 22.100000 C 65.500000 16.900000 65.000000 8.100000 65.000000 8.100000 C 65.000000 8.100000 56.099998 7.600000 51.000000 12.800000 C 48.599998 15.200000 47.400002 18.400000 46.799999 21.200001 C 42.400002 13.800000 36.000000 9.900000 35.599998 9.600000 L 32.500000 14.700000 C 32.599998 14.800000 43.400002 21.500000 44.900002 33.299999 C 37.599998 31.500000 27.799999 25.000000 19.000000 34.700001 C 9.300000 45.400002 17.600000 100.199997 48.099998 85.099998 C 78.500000 100.300003 86.699997 45.500000 77.000000 34.799999 Z" stroke="none" stroke-width="1.000000" stroke-dasharray="" stroke-dashoffset="1.000000" fill="#297D53" fill-opacity="1.000000"/></svg>