<svg version="1.1" viewBox="0.000000 0.000000 96.000000 96.000000" xmlns="http://www.w3.org/2000/svg" xmlns:xlink="http://www.w3.org/1999/xlink" id="Icons_Cloud" overflow="hidden"><style>
.MsftOfcThm_Accent1_Fill {
 fill:#9ACB39; 
}
</style>
<g><path d=" M 78.199997 47.900002 C 77.900002 47.900002 77.500000 47.900002 77.199997 47.900002 C 77.199997 47.900002 77.199997 47.900002 77.199997 47.900002 C 77.199997 43.000000 74.800003 38.500000 70.900002 35.700001 C 66.900002 32.900002 61.799999 32.200001 57.200001 33.799999 C 53.400002 26.400000 45.000000 22.600000 37.000000 24.500000 C 29.000000 26.400000 23.200001 33.599998 23.200001 41.900002 C 23.200001 41.900002 23.200001 42.000000 23.200001 42.099998 C 17.700001 41.200001 12.200000 43.500000 8.800000 47.900002 C 5.500000 52.400002 4.900000 58.299999 7.200000 63.299999 C 9.600000 68.300003 14.600000 71.599998 20.100000 71.900002 L 20.100000 72.000000 L 78.099998 72.000000 C 84.699997 72.000000 90.099998 66.599998 90.099998 60.000000 C 90.099998 53.400002 84.800003 47.900002 78.199997 47.900002 Z" stroke="none" stroke-width="1.000000" stroke-dasharray="" stroke-dashoffset="1.000000" fill="#9ACB39" fill-opacity="1.000000"/></g></svg>