<svg version="1.1" viewBox="0 0 96 96" xmlns="http://www.w3.org/2000/svg" xmlns:xlink="http://www.w3.org/1999/xlink" id="Icons_Cactus" overflow="hidden"><style>
.MsftOfcThm_Accent1_Fill {
 fill:#9ACB39; 
}
</style>
<path d=" M 67.5 18 C 64.7 18 62.5 20.2 62.5 23 L 62.5 44 C 62.5 45.7 61.2 47 59.5 47 L 56.5 47 C 56.4 32.4 54.3 10 54.3 10 C 54.3 6.7 51.7 4.1 48.5 4 C 45.3 4.1 42.7 6.7 42.7 10 C 42.7 10 40.5 33.5 40.5 48 C 40.5 51.1 40.6 54.9 40.8 59 L 36.5 59 C 34.8 59 33.5 57.7 33.5 56 L 33.5 43 C 33.5 40.2 31.3 38 28.5 38 C 25.7 38 23.5 40.2 23.5 43 L 23.5 56 C 23.5 63.2 29.3 69 36.5 69 L 41.4 69 C 42.1 80.9 43 92 43 92 L 54 92 C 54 92 55.7 72 56.3 57 L 59.5 57 C 66.7 57 72.5 51.2 72.5 44 L 72.5 23 C 72.5 20.2 70.3 18 67.5 18 Z" class="MsftOfcThm_Accent1_Fill" stroke="none" stroke-width="1" stroke-dasharray="" stroke-dashoffset="1" fill="#9ACB39" fill-opacity="1"/></svg>