<svg version="1.1" viewBox="0 0 96 96" xmlns="http://www.w3.org/2000/svg" xmlns:xlink="http://www.w3.org/1999/xlink" id="Icons_Thermometer" overflow="hidden"><style>
.MsftOfcThm_Accent2_Fill {
 fill:#64C24A; 
}
</style>
<g><path d=" M 48 86.3 C 41.5 86.3 35.8 81.7 34.4 75.4 C 32.9 69 36.1 62.5 42 59.7 L 42 15.7 C 42 12.4 44.7 9.7 48 9.7 C 51.3 9.7 54 12.4 54 15.7 L 54 59.7 C 59.9 62.5 63 69 61.6 75.4 C 60.1 81.7 54.5 86.2 48 86.3 L 48 86.3 Z M 60 56.3 L 60 15.7 C 60 9.1 54.6 3.7 48 3.7 C 41.4 3.7 36 9 36 15.7 L 36 56.3 C 29.1 61.5 26.3 70.5 29 78.6 C 31.7 86.8 39.4 92.3 48 92.3 C 56.6 92.3 64.3 86.8 67 78.6 C 69.7 70.5 66.9 61.5 60 56.3 Z" class="MsftOfcThm_Accent2_Fill" stroke="none" stroke-width="1" stroke-dasharray="" stroke-dashoffset="1" fill="#64C24A" fill-opacity="1"/><path d=" M 50 62.5 L 50 38.3 L 46 38.3 L 46 62.5 C 41 63.5 37.5 68.2 38.1 73.3 C 38.6 78.4 42.9 82.3 48 82.3 C 53.1 82.3 57.4 78.4 57.9 73.3 C 58.5 68.2 55 63.5 50 62.5 Z" class="MsftOfcThm_Accent2_Fill" stroke="none" stroke-width="1" stroke-dasharray="" stroke-dashoffset="1" fill="#64C24A" fill-opacity="1"/></g></svg>