<svg version="1.1" viewBox="0 0 96 96" xmlns="http://www.w3.org/2000/svg" xmlns:xlink="http://www.w3.org/1999/xlink" id="Icons_PalmTree" overflow="hidden"><style>
.MsftOfcThm_Accent2_Fill {
 fill:#64C24A; 
}
</style>
<path d=" M 79.8 37 C 78.1 31.8 73.9 21.7 66.7 19 C 58.5 16 51.3 22.8 49.3 24.9 C 50.6 22.2 53.2 15.1 46.7 10 C 42.5 6.7 33.5 7.5 28.4 8.3 C 27.4 8.5 27.2 9.8 28.2 10.2 C 31.8 11.6 37.6 14.5 43 19.5 C 38.9 16.4 33.2 14.3 26.7 17.9 C 22.3 20.4 18.4 27.1 16.3 31.3 C 15.8 32.2 16.9 33.1 17.7 32.6 C 21 30.4 26.8 27.1 33.9 25.9 C 31.6 27 29.4 28.8 27.7 31.9 C 25.3 36.2 25.5 42.8 26 47 C 26.1 48 27.5 48.2 27.9 47.3 C 29.2 44.2 31.7 39.6 35.9 35.6 C 35.7 36 35.6 36.5 35.6 37 C 35.6 39.2 37.4 41 39.6 41 C 40.5 41 41.4 40.7 42.1 40.1 C 38.4 57.4 38.1 81.2 38.1 88 C 38.1 89.1 39 90 40.1 90 L 46.7 90 C 47.9 90 48.9 88.9 48.7 87.6 C 46.5 75.6 44.6 57.6 48.3 39.9 C 49 41.1 50.3 41.9 51.8 41.9 C 54 41.9 55.8 40.1 55.8 37.9 C 55.8 37.6 55.8 37.4 55.7 37.1 C 60 43.3 60.6 49 61.9 51.9 C 62.3 52.7 63.4 52.7 63.7 51.9 C 65.2 48.4 67.6 41 64.7 33.9 C 63.3 30.4 60.4 28.3 57.3 27 C 66.3 29.7 74.4 35.1 78.3 38 C 79 38.7 80.1 37.9 79.8 37 Z" class="MsftOfcThm_Accent2_Fill" stroke="none" stroke-width="1" stroke-dasharray="" stroke-dashoffset="1" fill="#64C24A" fill-opacity="1"/></svg>