<svg version="1.1" viewBox="0.000000 0.000000 96.000000 96.000000" xmlns="http://www.w3.org/2000/svg" xmlns:xlink="http://www.w3.org/1999/xlink" id="Icons_Plant" overflow="hidden"><style>
.MsftOfcThm_Accent3_Fill {
 fill:#297D53; 
}
</style>
<path d=" M 64.699997 81.099998 C 62.000000 78.599998 58.400002 77.000000 54.500000 77.000000 C 54.000000 77.000000 53.500000 77.000000 53.000000 77.099998 C 53.299999 72.099998 52.500000 67.000000 51.500000 61.700001 C 51.799999 61.099998 52.500000 60.400002 53.400002 59.799999 C 55.099998 63.400002 58.700001 66.000000 63.000000 66.000000 C 64.900002 66.000000 66.699997 65.500000 68.199997 64.599998 L 68.199997 64.599998 C 76.300003 60.200001 77.300003 51.900002 77.300003 42.700001 C 77.300003 42.700001 68.599998 45.099998 63.099998 44.900002 C 57.299999 44.900002 52.599998 49.599998 52.599998 55.400002 C 52.599998 55.500000 52.599998 55.500000 52.599998 55.599998 C 52.000000 55.900002 51.400002 56.299999 50.799999 56.799999 C 49.599998 49.400002 48.900002 41.799999 51.299999 33.500000 C 52.299999 33.099998 53.500000 32.799999 54.599998 32.700001 C 54.700001 34.099998 55.400002 35.400002 56.599998 36.299999 C 57.400002 36.900002 58.200001 37.200001 59.099998 37.299999 L 59.099998 37.299999 C 63.599998 38.000000 66.500000 35.000000 69.300003 31.299999 C 69.300003 31.299999 65.099998 29.600000 62.900002 27.900000 C 60.700001 26.200001 57.700001 26.600000 55.900002 28.500000 C 54.900002 28.500000 53.799999 28.600000 52.799999 28.799999 C 54.000000 26.000000 55.599998 23.100000 57.599998 20.100000 C 58.000000 20.200001 58.299999 20.200001 58.700001 20.200001 C 61.599998 20.200001 63.900002 17.799999 63.900002 15.000000 C 63.900002 12.400000 65.099998 8.000000 65.099998 8.000000 C 60.500000 8.000000 56.400002 8.500000 54.200001 12.500000 L 54.200001 12.500000 C 53.799999 13.300000 53.500000 14.200000 53.500000 15.100000 C 53.500000 16.200001 53.799999 17.100000 54.400002 18.000000 C 53.200001 19.799999 52.099998 21.600000 51.099998 23.400000 C 50.700001 22.900000 50.299999 22.500000 49.799999 22.000000 C 49.799999 21.799999 49.900002 21.600000 49.900002 21.400000 C 49.900002 18.500000 47.500000 16.200001 44.700001 16.200001 C 41.900002 16.299999 37.599998 15.100000 37.599998 15.100000 C 37.599998 19.700001 38.099998 23.799999 42.099998 26.000000 L 42.099998 26.000000 C 42.900002 26.400000 43.799999 26.700001 44.700001 26.700001 C 45.900002 26.700001 46.900002 26.299999 47.799999 25.700001 C 48.400002 26.299999 48.799999 26.900000 49.200001 27.600000 C 46.000000 35.000000 45.299999 42.000000 45.700001 48.599998 C 45.599998 48.500000 45.500000 48.500000 45.299999 48.400002 C 44.599998 48.099998 44.000000 47.700001 43.299999 47.400002 C 43.400002 46.799999 43.400002 46.299999 43.400002 45.700001 C 43.400002 39.900002 38.700001 35.200001 32.900002 35.200001 C 27.500000 35.400002 18.799999 33.000000 18.799999 33.000000 C 18.799999 42.200001 19.799999 50.400002 27.900000 54.900002 L 27.900000 54.900002 C 29.400000 55.799999 31.200001 56.299999 33.099998 56.299999 C 36.900002 56.299999 40.200001 54.299999 42.099998 51.299999 C 42.599998 51.599998 43.200001 51.799999 43.700001 52.099998 C 44.500000 52.500000 45.400002 52.900002 46.299999 53.299999 C 46.700001 56.200001 47.200001 59.099998 47.599998 61.799999 C 48.599998 67.500000 49.599998 73.000000 49.000000 78.099998 C 47.099998 78.900002 45.400002 80.000000 43.900002 81.400002 C 42.000000 80.500000 39.799999 80.000000 37.500000 80.000000 C 31.700001 80.000000 26.799999 83.199997 24.200001 88.000000 L 76.099998 88.000000 C 73.699997 84.099998 69.599998 81.500000 64.699997 81.099998 Z" stroke="none" stroke-width="1.000000" stroke-dasharray="" stroke-dashoffset="1.000000" fill="#297D53" fill-opacity="1.000000"/></svg>